<svg xmlns="http://www.w3.org/2000/svg" width="708" height="399" fill="none"><rect width="708" height="399" fill="#fff" rx="16"/><path fill="#FBA68F" d="M106.141 76V62.91h3.085V76h-3.085zm1.551-14.948c-.489 0-.909-.162-1.261-.486-.353-.33-.529-.725-.529-1.185 0-.466.176-.86.529-1.184a1.78 1.78 0 0 1 1.261-.495c.494 0 .915.165 1.261.495.353.323.529.718.529 1.184 0 .46-.176.855-.529 1.185a1.78 1.78 0 0 1-1.261.486zm11.336 4.244v-2.387h-2.711v-1.03c0-.512.117-.904.35-1.177.239-.278.645-.418 1.219-.418.244 0 .466.023.664.069.199.04.364.08.495.119l.613-2.386a8.059 8.059 0 0 0-.92-.23 7.118 7.118 0 0 0-1.423-.129c-.756 0-1.444.145-2.063.435a3.452 3.452 0 0 0-1.483 1.313c-.363.585-.545 1.318-.545 2.199v1.235h-1.935v2.387h1.935V76h3.093V65.296h2.711zm3.168 15.511c.358.068.747.102 1.168.102.806 0 1.5-.133 2.079-.4a3.948 3.948 0 0 0 1.483-1.142c.404-.495.727-1.089.972-1.782l5.241-14.676h-3.281l-3.026 9.887h-.136l-3.017-9.887h-3.273l4.747 13.364-.264.707c-.187.495-.417.847-.69 1.057a1.475 1.475 0 0 1-.929.332 4.096 4.096 0 0 1-1.202-.187l-.716 2.403c.21.086.492.16.844.222z"/><path fill="#FBA68F" fill-rule="evenodd" d="M93.118 75.438c.812.528 1.733.793 2.761.793.75 0 1.372-.125 1.867-.375.494-.25.892-.552 1.193-.904.301-.358.531-.696.69-1.014h.188V76h3.034V58.546h-3.094v6.528h-.128a5.684 5.684 0 0 0-.673-1.014c-.29-.364-.682-.673-1.176-.929-.495-.261-1.125-.392-1.892-.392a5.016 5.016 0 0 0-2.736.776c-.818.511-1.469 1.27-1.952 2.275-.477 1-.716 2.227-.716 3.682 0 1.438.236 2.66.708 3.665.471 1.005 1.113 1.772 1.926 2.3zm5.293-2.267c-.46.352-1.017.528-1.67.528-.677 0-1.248-.181-1.714-.545-.46-.37-.81-.872-1.048-1.509-.233-.642-.35-1.372-.35-2.19 0-.813.117-1.534.35-2.165.233-.63.58-1.125 1.04-1.483.46-.358 1.034-.537 1.721-.537.665 0 1.225.174 1.679.52.46.347.807.833 1.04 1.458.238.625.358 1.36.358 2.207 0 .847-.12 1.588-.358 2.224-.239.637-.588 1.134-1.049 1.492zm-16.279 3.084c-1.278 0-2.386-.28-3.324-.843-.937-.563-1.665-1.35-2.182-2.361-.51-1.012-.767-2.193-.767-3.546 0-1.352.256-2.537.767-3.554.517-1.017 1.245-1.806 2.182-2.369.938-.563 2.046-.844 3.324-.844s2.386.282 3.324.844c.938.562 1.662 1.352 2.173 2.37.517 1.016.776 2.201.776 3.553 0 1.353-.259 2.534-.776 3.546-.511 1.011-1.236 1.798-2.173 2.36-.938.563-2.046.844-3.324.844zm.017-2.471c.693 0 1.273-.19 1.739-.571.466-.387.812-.904 1.04-1.551.233-.648.349-1.37.349-2.165 0-.801-.117-1.526-.35-2.174-.227-.653-.573-1.173-1.04-1.56-.465-.386-1.045-.579-1.738-.579-.71 0-1.301.194-1.773.58-.466.386-.815.906-1.048 1.56-.227.647-.34 1.372-.34 2.173 0 .795.113 1.517.34 2.165.233.647.582 1.164 1.048 1.55.472.381 1.063.572 1.773.572z" clip-rule="evenodd"/><path fill="#FBA68F" d="M70.473 64.434h3.188c-.13-.971-.41-1.835-.835-2.59a6.394 6.394 0 0 0-1.611-1.927 6.944 6.944 0 0 0-2.233-1.201 8.684 8.684 0 0 0-2.71-.41c-1.523 0-2.887.356-4.091 1.066-1.205.71-2.156 1.736-2.855 3.077-.7 1.335-1.049 2.943-1.049 4.824 0 1.875.347 3.483 1.04 4.823.693 1.341 1.642 2.367 2.847 3.077 1.204.71 2.574 1.066 4.108 1.066 1.04 0 1.985-.154 2.838-.46a7.115 7.115 0 0 0 2.233-1.296 6.884 6.884 0 0 0 1.542-1.926 6.865 6.865 0 0 0 .776-2.336l-3.188-.017a3.799 3.799 0 0 1-1.457 2.37c-.364.272-.776.48-1.236.622a5.077 5.077 0 0 1-1.466.204c-.943 0-1.781-.23-2.514-.69-.727-.466-1.301-1.153-1.721-2.062-.415-.915-.623-2.04-.623-3.375 0-1.313.208-2.424.622-3.333.415-.915.99-1.608 1.722-2.08.733-.477 1.574-.715 2.523-.715.534 0 1.031.074 1.491.221a3.8 3.8 0 0 1 1.245.64c.363.284.667.63.912 1.04.244.403.411.866.502 1.389z"/><path fill="#1A1A1A" d="M165.029 231.182V253h3.353v-21.818h-3.353zm.015-4.304a2.382 2.382 0 0 0 1.69.667c.653 0 1.212-.222 1.676-.667.474-.445.71-.98.71-1.605s-.236-1.16-.71-1.605a2.335 2.335 0 0 0-1.676-.668c-.653 0-1.217.223-1.69.668-.464.445-.696.98-.696 1.605s.232 1.16.696 1.605z"/><path fill="#1A1A1A" fill-rule="evenodd" d="M297.764 238.455c0 3.068-.554 5.72-1.662 7.954-1.108 2.235-2.628 3.959-4.56 5.171-1.932 1.212-4.138 1.818-6.619 1.818s-4.688-.606-6.619-1.818c-1.932-1.212-3.452-2.936-4.56-5.171-1.108-2.234-1.662-4.886-1.662-7.954 0-3.068.554-5.72 1.662-7.955 1.108-2.234 2.628-3.958 4.56-5.17 1.931-1.212 4.138-1.818 6.619-1.818s4.687.606 6.619 1.818c1.932 1.212 3.452 2.936 4.56 5.17 1.108 2.235 1.662 4.887 1.662 7.955zm-3.409 0c0-2.519-.422-4.645-1.264-6.378-.834-1.733-1.965-3.044-3.395-3.935-1.421-.89-3.012-1.335-4.773-1.335-1.761 0-3.357.445-4.787 1.335-1.42.891-2.552 2.202-3.395 3.935-.833 1.733-1.25 3.859-1.25 6.378s.417 4.645 1.25 6.378c.843 1.733 1.975 3.044 3.395 3.934 1.43.891 3.026 1.336 4.787 1.336 1.761 0 3.352-.445 4.773-1.336 1.43-.89 2.561-2.201 3.395-3.934.842-1.733 1.264-3.859 1.264-6.378z" clip-rule="evenodd"/><path fill="#1A1A1A" d="M199.483 301v-21.818h3.352V301h-3.352zm1.704-25.455a2.382 2.382 0 0 1-1.69-.667c-.464-.445-.696-.98-.696-1.605s.232-1.16.696-1.605a2.383 2.383 0 0 1 1.69-.668c.654 0 1.212.223 1.676.668.474.445.711.98.711 1.605s-.237 1.16-.711 1.605a2.333 2.333 0 0 1-1.676.667z"/><path fill="#1A1A1A" fill-rule="evenodd" d="M212.683 300.062c1.525.928 3.338 1.392 5.441 1.392 1.477 0 2.807-.227 3.991-.682 1.184-.464 2.178-1.107 2.983-1.931a7.19 7.19 0 0 0 1.719-2.898l-3.239-.909c-.284.757-.686 1.392-1.207 1.903a5.112 5.112 0 0 1-1.861 1.137c-.71.246-1.506.369-2.386.369-1.355 0-2.543-.294-3.566-.881-1.022-.596-1.823-1.463-2.4-2.599-.516-1.039-.797-2.284-.845-3.736h15.845v-1.42c0-2.036-.27-3.75-.81-5.142-.54-1.393-1.264-2.51-2.173-3.353-.909-.852-1.918-1.468-3.026-1.846a10.337 10.337 0 0 0-3.366-.569c-1.97 0-3.694.483-5.171 1.449-1.468.957-2.613 2.292-3.437 4.006-.815 1.705-1.222 3.674-1.222 5.909s.407 4.195 1.222 5.881c.824 1.676 1.993 2.983 3.508 3.92zm-1.362-11.733a7.447 7.447 0 0 1 .766-2.869 6.538 6.538 0 0 1 2.23-2.557c.975-.663 2.13-.994 3.466-.994 1.212 0 2.263.279 3.153.838a5.565 5.565 0 0 1 2.074 2.287c.492.966.739 2.064.739 3.295h-12.428z" clip-rule="evenodd"/><path fill="#1A1A1A" d="m247.71 284.068-3.012.852a5.597 5.597 0 0 0-.838-1.463c-.36-.483-.852-.881-1.477-1.193-.625-.313-1.425-.469-2.401-.469-1.335 0-2.448.308-3.338.923-.881.607-1.321 1.378-1.321 2.316 0 .833.303 1.491.909 1.974.606.483 1.553.886 2.841 1.208l3.239.795c1.951.474 3.404 1.198 4.361 2.173.956.966 1.434 2.212 1.434 3.736 0 1.25-.36 2.368-1.079 3.352-.711.985-1.705 1.762-2.983 2.33-1.279.568-2.765.852-4.46.852-2.226 0-4.068-.483-5.526-1.449-1.458-.965-2.382-2.376-2.77-4.233l3.182-.795c.303 1.174.876 2.055 1.719 2.642.852.587 1.965.881 3.338.881 1.562 0 2.803-.332 3.721-.995.928-.672 1.392-1.477 1.392-2.414 0-.758-.265-1.392-.795-1.904-.53-.521-1.345-.909-2.443-1.165l-3.637-.852c-1.998-.473-3.466-1.207-4.403-2.202-.928-1.003-1.392-2.258-1.392-3.764 0-1.231.346-2.32 1.037-3.267.701-.947 1.652-1.69 2.855-2.23 1.212-.54 2.585-.81 4.119-.81 2.159 0 3.854.474 5.085 1.421 1.241.947 2.122 2.197 2.643 3.75zm7.886 17.159a2.46 2.46 0 0 1-1.804-.753 2.46 2.46 0 0 1-.753-1.804c0-.701.251-1.302.753-1.804a2.46 2.46 0 0 1 1.804-.753 2.46 2.46 0 0 1 1.804.753 2.46 2.46 0 0 1 .753 1.804c0 .464-.119.89-.355 1.279-.228.388-.535.7-.924.937a2.437 2.437 0 0 1-1.278.341z"/><path fill="#1A1A1A" fill-rule="evenodd" d="M179.739 309.011c1.165.417 2.557.625 4.176.625 1.743 0 3.324-.279 4.745-.838 1.43-.549 2.566-1.416 3.409-2.599.852-1.175 1.278-2.699 1.278-4.574v-22.443h-3.238v3.465h-.341a23.08 23.08 0 0 0-1.051-1.448c-.445-.597-1.089-1.127-1.932-1.591-.834-.474-1.96-.711-3.381-.711-1.837 0-3.456.46-4.858 1.378-1.401.909-2.495 2.197-3.281 3.864-.786 1.657-1.179 3.603-1.179 5.838 0 2.273.402 4.205 1.207 5.795.815 1.591 1.918 2.803 3.31 3.637 1.401.833 2.983 1.25 4.744 1.25 1.421 0 2.548-.223 3.381-.668.843-.454 1.487-.97 1.932-1.548.454-.587.805-1.08 1.051-1.477h.284v4.431c0 1.819-.573 3.154-1.719 4.006-1.146.852-2.599 1.279-4.361 1.279-1.316 0-2.381-.195-3.196-.583-.804-.379-1.439-.828-1.903-1.349a21.645 21.645 0 0 1-1.151-1.364l-2.67 1.875c.455.758 1.065 1.468 1.832 2.131.777.672 1.748 1.212 2.912 1.619zm7.472-12.287c-.928.616-2.064.923-3.409.923-1.402 0-2.576-.326-3.523-.98-.937-.663-1.648-1.572-2.131-2.727-.473-1.165-.71-2.505-.71-4.02 0-1.477.232-2.822.696-4.034.474-1.212 1.179-2.178 2.117-2.898.947-.719 2.13-1.079 3.551-1.079 1.363 0 2.509.341 3.437 1.023.928.681 1.629 1.624 2.103 2.826.473 1.203.71 2.59.71 4.162 0 1.61-.242 2.993-.725 4.148-.483 1.155-1.188 2.041-2.116 2.656zm-26.236 4.73c-2.102 0-3.916-.464-5.44-1.392-1.515-.937-2.685-2.244-3.509-3.92-.814-1.686-1.221-3.646-1.221-5.881 0-2.235.407-4.204 1.221-5.909.824-1.714 1.97-3.049 3.438-4.006 1.477-.966 3.201-1.449 5.17-1.449 1.137 0 2.259.19 3.367.569 1.108.378 2.116.994 3.025 1.846.909.843 1.634 1.96 2.174 3.353.539 1.392.809 3.106.809 5.142v1.42h-15.845c.048 1.452.33 2.697.845 3.736.578 1.136 1.378 2.003 2.401 2.599 1.023.587 2.211.881 3.565.881.881 0 1.676-.123 2.387-.369a5.116 5.116 0 0 0 1.86-1.137c.521-.511.924-1.146 1.208-1.903l3.238.909a7.2 7.2 0 0 1-1.718 2.898c-.805.824-1.8 1.467-2.983 1.931-1.184.455-2.515.682-3.992.682zm-6.802-13.125H166.6c0-1.231-.246-2.329-.738-3.295a5.572 5.572 0 0 0-2.074-2.287c-.891-.559-1.942-.838-3.154-.838-1.335 0-2.49.331-3.466.994a6.546 6.546 0 0 0-2.23 2.557 7.464 7.464 0 0 0-.765 2.869z" clip-rule="evenodd"/><path fill="#1A1A1A" d="M147.018 282.022v-2.841h-4.659v-5.227h-3.353v5.227h-3.295v2.841h3.295v13.637c0 1.269.294 2.32.881 3.153a5.538 5.538 0 0 0 2.244 1.861 6.753 6.753 0 0 0 2.784.611c.625 0 1.142-.048 1.549-.142a6.94 6.94 0 0 0 .951-.256l-.681-3.011-.569.113a5.91 5.91 0 0 1-.909.057c-.492 0-.961-.076-1.406-.227-.435-.161-.795-.474-1.079-.938-.275-.473-.412-1.183-.412-2.13v-12.728h4.659z"/><path fill="#1A1A1A" fill-rule="evenodd" d="M121.412 301.511c-1.383 0-2.637-.26-3.764-.781-1.127-.53-2.022-1.293-2.685-2.287-.663-1.004-.994-2.216-.994-3.636 0-1.25.246-2.264.738-3.04a5.219 5.219 0 0 1 1.975-1.847 10.39 10.39 0 0 1 2.727-.994 33.417 33.417 0 0 1 3.026-.54c1.325-.17 2.4-.298 3.224-.383.833-.095 1.439-.251 1.818-.469.389-.218.583-.597.583-1.137v-.113c0-1.402-.384-2.491-1.151-3.267-.757-.777-1.908-1.165-3.452-1.165-1.6 0-2.855.35-3.764 1.051-.909.701-1.548 1.449-1.917 2.244l-3.182-1.136c.568-1.326 1.326-2.358 2.272-3.096a8.523 8.523 0 0 1 3.125-1.563 12.983 12.983 0 0 1 3.353-.455c.701 0 1.505.086 2.415.256a7.725 7.725 0 0 1 2.656 1.009c.862.511 1.576 1.283 2.145 2.315.568 1.032.852 2.415.852 4.148V301h-3.352v-2.955h-.171c-.227.474-.606.98-1.136 1.52-.53.54-1.236.999-2.117 1.378-.88.379-1.955.568-3.224.568zm.511-3.011c1.326 0 2.443-.261 3.353-.782.918-.52 1.609-1.193 2.073-2.017.474-.823.711-1.69.711-2.599v-3.068c-.142.17-.455.327-.938.469a15.9 15.9 0 0 1-1.648.355 73.59 73.59 0 0 1-1.804.255 89.92 89.92 0 0 0-1.406.171c-.871.113-1.685.298-2.443.554-.748.246-1.354.62-1.818 1.122-.455.492-.682 1.165-.682 2.017 0 1.165.431 2.045 1.293 2.642.871.587 1.974.881 3.309.881z" clip-rule="evenodd"/><path fill="#1A1A1A" d="M100.105 279.182V301h3.353v-13.807c0-.985.236-1.861.71-2.628a5.041 5.041 0 0 1 1.96-1.818c.834-.445 1.781-.668 2.841-.668.445 0 .867.034 1.264.1.408.057.668.099.782.128v-3.409c-.19-.019-.469-.034-.839-.043a39.42 39.42 0 0 0-.923-.014c-1.307 0-2.481.336-3.523 1.008-1.041.673-1.761 1.549-2.159 2.628h-.227v-3.295h-3.239zm-5.04-.001v2.841h-4.66v12.728c0 .947.138 1.657.412 2.13.285.464.644.777 1.08.938.445.151.914.227 1.406.227.37 0 .673-.019.91-.057l.568-.113.681 3.011a6.96 6.96 0 0 1-.951.256c-.407.094-.924.142-1.549.142a6.75 6.75 0 0 1-2.784-.611 5.532 5.532 0 0 1-2.244-1.861c-.587-.833-.88-1.884-.88-3.153v-13.637h-3.296v-2.841h3.295v-5.227h3.353v5.227h4.659zm-20.706-3.351c1.212.795 1.903 1.913 2.074 3.352h3.409c-.048-1.468-.502-2.779-1.364-3.934-.852-1.156-2.008-2.065-3.466-2.728-1.458-.672-3.125-1.008-5-1.008-1.856 0-3.537.341-5.043 1.022-1.496.673-2.689 1.62-3.58 2.841-.88 1.212-1.32 2.633-1.32 4.262 0 1.96.663 3.546 1.988 4.758 1.326 1.212 3.126 2.145 5.398 2.799l3.58 1.022c1.023.284 1.974.616 2.855.995.88.378 1.59.871 2.13 1.477.54.606.81 1.392.81 2.358 0 1.06-.312 1.988-.937 2.784-.625.786-1.473 1.401-2.543 1.846-1.07.436-2.277.654-3.622.654-1.155 0-2.235-.171-3.239-.511-.994-.351-1.818-.881-2.471-1.591-.644-.72-1.014-1.629-1.108-2.728h-3.637c.114 1.591.602 2.988 1.463 4.191.872 1.202 2.065 2.14 3.58 2.812 1.525.673 3.329 1.009 5.412 1.009 2.235 0 4.134-.374 5.696-1.122 1.572-.749 2.765-1.757 3.58-3.026.823-1.269 1.235-2.689 1.235-4.261 0-1.364-.279-2.515-.838-3.452a7.294 7.294 0 0 0-2.13-2.301 11.702 11.702 0 0 0-2.685-1.435c-.928-.35-1.77-.625-2.528-.824l-2.955-.795a22.967 22.967 0 0 1-1.776-.554 10.388 10.388 0 0 1-1.846-.895 4.914 4.914 0 0 1-1.449-1.378c-.37-.559-.554-1.226-.554-2.003 0-.928.265-1.756.795-2.486.54-.729 1.288-1.302 2.245-1.718.966-.417 2.093-.625 3.38-.625 1.762 0 3.249.397 4.46 1.193zm174.953-51.921V253h17.785v-3.125h-14.262v-9.886h13.125v-3.125h-13.125v-9.83h14.034v-3.125h-17.557zm-9.598 7.273c-.171-1.439-.862-2.557-2.074-3.352-1.212-.796-2.699-1.193-4.46-1.193-1.288 0-2.415.208-3.381.625-.956.416-1.705.989-2.244 1.718a4.118 4.118 0 0 0-.796 2.486c0 .777.185 1.444.554 2.003a4.92 4.92 0 0 0 1.449 1.378c.587.36 1.203.658 1.847.895a22.93 22.93 0 0 0 1.775.554l2.955.795c.757.199 1.6.474 2.528.824.938.351 1.833.829 2.685 1.435a7.295 7.295 0 0 1 2.131 2.301c.558.937.838 2.088.838 3.452 0 1.572-.412 2.992-1.236 4.261-.815 1.269-2.008 2.277-3.58 3.026-1.562.748-3.461 1.122-5.696 1.122-2.083 0-3.887-.336-5.412-1.009-1.515-.672-2.708-1.61-3.579-2.812-.862-1.203-1.35-2.6-1.463-4.191h3.636c.095 1.099.464 2.008 1.108 2.728.653.71 1.477 1.24 2.472 1.591 1.003.34 2.083.511 3.238.511 1.345 0 2.552-.218 3.622-.654 1.07-.445 1.918-1.06 2.543-1.846.625-.796.938-1.724.938-2.784 0-.966-.27-1.752-.81-2.358-.54-.606-1.25-1.099-2.131-1.477a22.343 22.343 0 0 0-2.855-.995l-3.579-1.022c-2.273-.654-4.072-1.587-5.398-2.799-1.326-1.212-1.989-2.798-1.989-4.758 0-1.629.44-3.05 1.321-4.262.89-1.221 2.084-2.168 3.58-2.841 1.505-.681 3.186-1.022 5.042-1.022 1.875 0 3.542.336 5 1.008 1.459.663 2.614 1.572 3.466 2.728.862 1.155 1.317 2.466 1.364 3.934h-3.409z"/><path fill="#1A1A1A" fill-rule="evenodd" d="M192.527 252.062c1.525.928 3.338 1.392 5.44 1.392 1.478 0 2.808-.227 3.992-.682 1.184-.464 2.178-1.107 2.983-1.931a7.19 7.19 0 0 0 1.719-2.898l-3.239-.909c-.284.757-.687 1.392-1.208 1.903a5.108 5.108 0 0 1-1.86 1.137c-.711.246-1.506.369-2.387.369-1.354 0-2.542-.294-3.565-.881-1.023-.596-1.823-1.463-2.401-2.599-.515-1.039-.796-2.284-.844-3.736h15.844v-1.42c0-2.036-.269-3.75-.809-5.142-.54-1.393-1.264-2.51-2.174-3.353-.909-.852-1.917-1.468-3.025-1.846a10.338 10.338 0 0 0-3.367-.569c-1.969 0-3.693.483-5.17 1.449-1.468.957-2.614 2.292-3.438 4.006-.814 1.705-1.221 3.674-1.221 5.909s.407 4.195 1.221 5.881c.824 1.676 1.994 2.983 3.509 3.92zm11.065-11.733h-12.427a7.464 7.464 0 0 1 .765-2.869 6.549 6.549 0 0 1 2.231-2.557c.975-.663 2.13-.994 3.465-.994 1.213 0 2.264.279 3.154.838a5.572 5.572 0 0 1 2.074 2.287c.492.966.738 2.064.738 3.295z" clip-rule="evenodd"/><path fill="#1A1A1A" d="M184.01 231.181v2.841h-4.659v12.728c0 .947.137 1.657.412 2.13.284.464.644.777 1.079.938.445.151.914.227 1.407.227.369 0 .672-.019.909-.057l.568-.113.682 3.011c-.228.085-.545.17-.952.256-.407.094-.923.142-1.548.142a6.75 6.75 0 0 1-2.784-.611 5.534 5.534 0 0 1-2.245-1.861c-.587-.833-.88-1.884-.88-3.153v-13.637h-3.296v-2.841h3.296v-5.227h3.352v5.227h4.659zm-24.425 4.887-3.012.852a5.597 5.597 0 0 0-.838-1.463c-.36-.483-.852-.881-1.477-1.193-.625-.313-1.425-.469-2.401-.469-1.335 0-2.448.308-3.338.923-.881.607-1.321 1.378-1.321 2.316 0 .833.303 1.491.909 1.974.606.483 1.553.886 2.841 1.208l3.239.795c1.951.474 3.404 1.198 4.361 2.173.956.966 1.434 2.212 1.434 3.736 0 1.25-.36 2.368-1.079 3.352-.711.985-1.705 1.762-2.983 2.33-1.279.568-2.765.852-4.46.852-2.226 0-4.068-.483-5.526-1.449-1.458-.966-2.382-2.376-2.77-4.233l3.182-.795c.303 1.174.876 2.055 1.719 2.642.852.587 1.965.881 3.338.881 1.562 0 2.803-.332 3.721-.995.928-.672 1.392-1.477 1.392-2.414 0-.758-.265-1.392-.795-1.904-.53-.521-1.345-.909-2.443-1.165l-3.637-.852c-1.998-.473-3.466-1.207-4.403-2.202-.928-1.003-1.392-2.258-1.392-3.764 0-1.231.346-2.32 1.037-3.267.701-.947 1.652-1.69 2.855-2.23 1.212-.54 2.585-.81 4.119-.81 2.159 0 3.854.474 5.085 1.421 1.241.947 2.122 2.197 2.643 3.75z"/><path fill="#1A1A1A" fill-rule="evenodd" d="M119.742 223.909V253h3.239v-3.352h.398c.246.398.596.899 1.051 1.506.454.596 1.103 1.131 1.946 1.605.843.464 1.965.696 3.366.696 1.818 0 3.423-.46 4.816-1.378 1.392-.928 2.481-2.235 3.267-3.921.786-1.695 1.179-3.698 1.179-6.008 0-2.292-.393-4.28-1.179-5.966s-1.88-2.988-3.282-3.906c-1.401-.919-3.021-1.378-4.858-1.378-1.42 0-2.547.237-3.38.71-.824.464-1.459.994-1.904 1.591-.435.587-.776 1.07-1.022 1.449h-.285v-10.739h-3.352zm4.02 22.543c-.483-1.26-.724-2.713-.724-4.361 0-1.629.236-3.054.71-4.276.473-1.231 1.174-2.187 2.102-2.869.928-.691 2.074-1.037 3.438-1.037 1.42 0 2.599.365 3.537 1.094.947.72 1.652 1.7 2.116 2.94.474 1.231.71 2.614.71 4.148 0 1.553-.241 2.964-.724 4.233-.474 1.259-1.184 2.263-2.131 3.011-.937.739-2.107 1.108-3.508 1.108-1.345 0-2.481-.35-3.409-1.051-.928-.71-1.634-1.69-2.117-2.94zm-18.607 7.002c-2.102 0-3.916-.464-5.44-1.392-1.516-.937-2.685-2.244-3.509-3.92-.814-1.686-1.222-3.646-1.222-5.881 0-2.235.408-4.204 1.222-5.909.824-1.714 1.97-3.049 3.438-4.006 1.477-.966 3.2-1.449 5.17-1.449 1.136 0 2.258.19 3.366.569 1.108.378 2.117.994 3.026 1.846.909.843 1.633 1.96 2.173 3.353.54 1.392.81 3.106.81 5.142v1.42H98.344c.048 1.452.33 2.697.845 3.736.578 1.136 1.378 2.003 2.4 2.599 1.023.587 2.212.881 3.566.881.881 0 1.676-.123 2.386-.369a5.112 5.112 0 0 0 1.861-1.137c.521-.511.923-1.146 1.207-1.903l3.239.909a7.19 7.19 0 0 1-1.719 2.898c-.805.824-1.799 1.467-2.983 1.931-1.183.455-2.514.682-3.991.682zm-6.802-13.125h12.427c0-1.231-.246-2.329-.739-3.295a5.565 5.565 0 0 0-2.074-2.287c-.89-.559-1.941-.838-3.153-.838-1.335 0-2.491.331-3.466.994a6.545 6.545 0 0 0-2.23 2.557 7.457 7.457 0 0 0-.765 2.869z" clip-rule="evenodd"/><path fill="#1A1A1A" d="M57.852 223.909 65.806 253h3.636l6.42-23.182h.228L82.51 253h3.637l7.955-29.091h-3.58l-6.08 23.693h-.284l-6.193-23.693h-3.977l-6.193 23.693h-.284l-6.08-23.693h-3.58zM214.097 157v-21.818h5.142V157h-5.142zm2.585-24.915c-.814 0-1.515-.27-2.102-.809-.587-.55-.881-1.208-.881-1.975 0-.776.294-1.434.881-1.974a2.972 2.972 0 0 1 2.102-.824c.824 0 1.525.275 2.102.824.588.54.881 1.198.881 1.974 0 .767-.293 1.425-.881 1.975-.577.539-1.278.809-2.102.809zm169.492 24.262c1.591.701 3.409 1.051 5.455 1.051 2.083 0 3.929-.364 5.539-1.094 1.62-.729 2.889-1.733 3.807-3.011.928-1.288 1.392-2.746 1.392-4.375.01-1.818-.535-3.338-1.633-4.56-1.089-1.231-2.657-1.988-4.702-2.272v-.228c1.572-.341 2.841-1.065 3.807-2.173.975-1.108 1.458-2.481 1.449-4.119a7.33 7.33 0 0 0-1.179-4.049c-.786-1.221-1.899-2.192-3.338-2.912-1.43-.729-3.116-1.093-5.057-1.093-1.885 0-3.585.35-5.1 1.051-1.515.691-2.727 1.657-3.636 2.898-.9 1.231-1.368 2.661-1.406 4.289h5.071c.028-.814.274-1.515.738-2.102.464-.597 1.075-1.056 1.833-1.378a6.248 6.248 0 0 1 2.471-.483c.909 0 1.7.171 2.373.512.681.341 1.207.819 1.576 1.434.379.606.564 1.321.554 2.145.01.843-.203 1.586-.639 2.23-.436.635-1.037 1.127-1.804 1.478-.758.35-1.643.525-2.656.525h-2.571v4.063h2.571c1.231 0 2.282.189 3.153.568.881.379 1.553.904 2.017 1.577.464.672.692 1.448.682 2.329.01.852-.213 1.605-.668 2.259-.454.653-1.084 1.164-1.889 1.534-.805.36-1.728.539-2.77.539-.975 0-1.856-.161-2.642-.482-.786-.322-1.415-.772-1.889-1.35a3.538 3.538 0 0 1-.781-2.06h-5.341c.057 1.639.544 3.083 1.463 4.333s2.169 2.225 3.75 2.926zM178.042 205v-21.818h5.142V205h-5.142zm2.585-24.915c-.814 0-1.515-.27-2.102-.809-.587-.55-.88-1.208-.88-1.975 0-.776.293-1.434.88-1.974a2.972 2.972 0 0 1 2.102-.824c.824 0 1.525.275 2.103.824.587.54.88 1.198.88 1.974 0 .767-.293 1.425-.88 1.975-.578.539-1.279.809-2.103.809zm154.72 3.097V205h5.142v-21.818h-5.142zm.483-3.906a3.002 3.002 0 0 0 2.102.809c.824 0 1.525-.27 2.102-.809.588-.55.881-1.208.881-1.975 0-.776-.293-1.434-.881-1.974-.577-.549-1.278-.824-2.102-.824-.814 0-1.515.275-2.102.824-.587.54-.881 1.198-.881 1.974 0 .767.294 1.425.881 1.975zM350.915 205v-29.091h-5.142V205h5.142z"/><path fill="#1A1A1A" fill-rule="evenodd" d="M318.657 205.44c-1.383 0-2.628-.246-3.736-.739a6.09 6.09 0 0 1-2.614-2.215c-.634-.976-.952-2.179-.952-3.608 0-1.231.228-2.249.682-3.054a5.28 5.28 0 0 1 1.861-1.932 9.375 9.375 0 0 1 2.656-1.094c.995-.256 2.022-.44 3.083-.554 1.278-.133 2.315-.251 3.11-.355.796-.114 1.374-.284 1.733-.511.37-.237.554-.602.554-1.094v-.085c0-1.07-.317-1.899-.951-2.486-.635-.587-1.549-.881-2.742-.881-1.259 0-2.258.275-2.997.824-.729.549-1.222 1.198-1.477 1.946l-4.801-.682c.378-1.326 1.003-2.434 1.875-3.324.871-.899 1.936-1.572 3.196-2.017 1.259-.454 2.651-.682 4.176-.682 1.051 0 2.097.124 3.139.37a8.83 8.83 0 0 1 2.855 1.221c.862.559 1.553 1.321 2.074 2.287.53.966.795 2.174.795 3.622V205h-4.943v-2.997h-.17a6.285 6.285 0 0 1-1.321 1.704c-.559.521-1.264.942-2.117 1.264-.842.313-1.832.469-2.968.469zm1.335-3.778c1.032 0 1.927-.204 2.684-.611.758-.417 1.34-.966 1.748-1.648a4.203 4.203 0 0 0 .625-2.23v-2.571c-.161.133-.436.256-.824.369-.379.114-.805.213-1.279.299-.473.085-.942.161-1.406.227-.464.066-.866.123-1.207.17a9.011 9.011 0 0 0-2.06.512c-.606.236-1.084.568-1.435.994-.35.417-.525.956-.525 1.619 0 .947.346 1.662 1.037 2.145.691.483 1.572.725 2.642.725z" clip-rule="evenodd"/><path fill="#1A1A1A" d="M308.078 187.159v-3.978h-4.304v-5.227h-5.142v5.227h-3.097v3.978h3.097v12.13c-.01 1.364.284 2.5.88 3.409a5.406 5.406 0 0 0 2.458 2.017c1.032.427 2.192.621 3.48.583.729-.019 1.345-.085 1.847-.199a11.42 11.42 0 0 0 1.178-.313l-.866-4.019c-.142.037-.35.08-.625.127a4.967 4.967 0 0 1-.881.071c-.426 0-.814-.066-1.164-.198-.351-.133-.635-.379-.853-.739-.208-.369-.312-.9-.312-1.591v-11.278h4.304z"/><path fill="#1A1A1A" fill-rule="evenodd" d="M283.128 205.426c-2.188 0-4.077-.455-5.668-1.364-1.581-.918-2.798-2.216-3.65-3.892-.853-1.685-1.279-3.669-1.279-5.952 0-2.244.426-4.214 1.279-5.909.861-1.704 2.064-3.03 3.608-3.977 1.543-.956 3.357-1.435 5.44-1.435 1.345 0 2.614.218 3.807.654a8.608 8.608 0 0 1 3.182 1.989c.928.899 1.657 2.045 2.187 3.437.53 1.383.796 3.03.796 4.943v1.577h-15.199c.016 1.214.247 2.261.696 3.139.464.9 1.112 1.591 1.946 2.074.833.473 1.808.71 2.926.71.748 0 1.425-.104 2.031-.312a4.507 4.507 0 0 0 1.577-.952 3.966 3.966 0 0 0 1.008-1.548l4.801.539a7.486 7.486 0 0 1-1.732 3.324c-.843.938-1.923 1.667-3.239 2.188-1.316.511-2.822.767-4.517.767zm-5.487-13.395h10.26c-.01-.985-.223-1.861-.64-2.628a4.645 4.645 0 0 0-1.747-1.832c-.738-.445-1.6-.668-2.585-.668-1.051 0-1.974.256-2.77.767a5.29 5.29 0 0 0-1.861 1.989 5.674 5.674 0 0 0-.657 2.372zm-29.645-16.122V205h5.27v-10.653h5.362L264.346 205h5.88l-6.292-11.517a9.56 9.56 0 0 0 .554-.244c1.534-.748 2.694-1.804 3.48-3.168.795-1.373 1.193-2.992 1.193-4.858 0-1.856-.393-3.48-1.179-4.872-.777-1.402-1.927-2.491-3.452-3.267-1.515-.777-3.39-1.165-5.625-1.165h-10.909zm10.128 14.063h-4.858v-9.659h4.83c1.316 0 2.391.194 3.224.582.833.379 1.454.937 1.861 1.676.407.729.611 1.61.611 2.642 0 1.032-.204 1.904-.611 2.614-.398.701-1.014 1.236-1.847 1.605-.833.36-1.903.54-3.21.54zm-35.791 23.664c-1.847 0-3.433-.251-4.759-.753-1.326-.492-2.391-1.155-3.196-1.988-.805-.834-1.363-1.757-1.676-2.77l4.631-1.122c.208.426.511.847.909 1.264.398.426.933.776 1.605 1.051.682.284 1.539.426 2.571.426 1.458 0 2.666-.355 3.622-1.065.957-.701 1.435-1.856 1.435-3.466v-4.134h-.256c-.265.531-.653 1.075-1.165 1.634-.502.559-1.169 1.027-2.003 1.406-.823.379-1.86.568-3.11.568-1.676 0-3.196-.393-4.56-1.179-1.354-.795-2.434-1.979-3.239-3.551-.795-1.581-1.193-3.56-1.193-5.937 0-2.396.398-4.418 1.193-6.066.805-1.657 1.89-2.912 3.253-3.764 1.364-.862 2.884-1.293 4.56-1.293 1.278 0 2.329.218 3.153.654.834.426 1.497.942 1.989 1.548.492.597.866 1.16 1.122 1.691h.284v-3.608h5.071v22.173c0 1.865-.445 3.409-1.335 4.631-.89 1.221-2.107 2.135-3.651 2.741-1.543.606-3.295.909-5.255.909zm.042-12.983c1.089 0 2.017-.265 2.784-.795.767-.531 1.35-1.293 1.748-2.287.397-.995.596-2.188.596-3.58 0-1.373-.199-2.576-.596-3.608-.389-1.032-.966-1.832-1.733-2.4-.758-.578-1.691-.867-2.799-.867-1.145 0-2.102.299-2.869.895-.767.597-1.345 1.416-1.733 2.457-.388 1.033-.582 2.207-.582 3.523 0 1.335.194 2.505.582 3.509.398.994.98 1.771 1.747 2.329.777.55 1.728.824 2.855.824z" clip-rule="evenodd"/><path fill="#1A1A1A" d="M193.611 205v-12.784c0-1.051.194-1.946.582-2.685.398-.739.942-1.302 1.634-1.69.7-.398 1.501-.597 2.4-.597 1.326 0 2.363.412 3.111 1.236.758.824 1.136 1.965 1.136 3.423V205h5.142v-13.892c.01-1.743-.298-3.225-.923-4.446-.615-1.222-1.487-2.155-2.613-2.799-1.118-.644-2.429-.966-3.935-.966-1.629 0-2.997.36-4.105 1.08a6.234 6.234 0 0 0-2.401 2.912h-.255v-3.707h-4.915V205h5.142zm-19.869-17.841v-3.978h-4.304v-5.227h-5.142v5.227h-3.097v3.978h3.097v12.13c-.01 1.364.284 2.5.88 3.409a5.411 5.411 0 0 0 2.458 2.017c1.032.427 2.192.621 3.48.583.729-.019 1.345-.085 1.847-.199.511-.114.904-.218 1.179-.313l-.867-4.019c-.142.037-.35.08-.625.127a4.967 4.967 0 0 1-.881.071c-.426 0-.814-.066-1.164-.198-.351-.133-.635-.379-.853-.739-.208-.369-.312-.9-.312-1.591v-11.278h4.304z"/><path fill="#1A1A1A" fill-rule="evenodd" d="M146.157 205.44c-1.383 0-2.628-.246-3.736-.739a6.09 6.09 0 0 1-2.614-2.215c-.634-.976-.952-2.179-.952-3.608 0-1.231.228-2.249.682-3.054a5.28 5.28 0 0 1 1.861-1.932 9.375 9.375 0 0 1 2.656-1.094c.995-.256 2.022-.44 3.083-.554 1.278-.133 2.315-.251 3.111-.355.795-.114 1.373-.284 1.732-.511.37-.237.554-.602.554-1.094v-.085c0-1.07-.317-1.899-.951-2.486-.635-.587-1.549-.881-2.742-.881-1.259 0-2.258.275-2.997.824-.729.549-1.221 1.198-1.477 1.946l-4.801-.682c.378-1.326 1.003-2.434 1.875-3.324.871-.899 1.936-1.572 3.196-2.017 1.259-.454 2.651-.682 4.176-.682 1.051 0 2.097.124 3.139.37a8.83 8.83 0 0 1 2.855 1.221c.862.559 1.553 1.321 2.074 2.287.53.966.795 2.174.795 3.622V205h-4.943v-2.997h-.17a6.285 6.285 0 0 1-1.321 1.704c-.559.521-1.264.942-2.117 1.264-.842.313-1.832.469-2.968.469zm1.335-3.778c1.032 0 1.927-.204 2.684-.611.758-.417 1.34-.966 1.748-1.648a4.203 4.203 0 0 0 .625-2.23v-2.571c-.161.133-.436.256-.824.369-.379.114-.805.213-1.279.299-.473.085-.942.161-1.406.227-.464.066-.866.123-1.207.17a9.011 9.011 0 0 0-2.06.512c-.606.236-1.084.568-1.435.994-.35.417-.525.956-.525 1.619 0 .947.346 1.662 1.037 2.145.691.483 1.572.725 2.642.725z" clip-rule="evenodd"/><path fill="#1A1A1A" d="m129.174 205 7.77-21.818h-5.469l-5.028 16.207h-.227l-5.014-16.207h-5.483l7.77 21.818h5.681z"/><path fill="#1A1A1A" fill-rule="evenodd" d="M104.026 205.426c-2.187 0-4.076-.455-5.667-1.364-1.582-.918-2.799-2.216-3.65-3.892-.853-1.685-1.28-3.669-1.28-5.952 0-2.244.427-4.214 1.28-5.909.86-1.704 2.063-3.03 3.607-3.977 1.544-.956 3.357-1.435 5.44-1.435 1.345 0 2.614.218 3.807.654a8.6 8.6 0 0 1 3.182 1.989c.928.899 1.657 2.045 2.188 3.437.53 1.383.795 3.03.795 4.943v1.577H98.53c.015 1.214.247 2.261.695 3.139.464.9 1.113 1.591 1.946 2.074.833.473 1.809.71 2.926.71.748 0 1.425-.104 2.032-.312a4.503 4.503 0 0 0 1.576-.952 3.968 3.968 0 0 0 1.009-1.548l4.801.539a7.488 7.488 0 0 1-1.733 3.324c-.843.938-1.922 1.667-3.239 2.188-1.316.511-2.822.767-4.517.767zm-5.486-13.395h10.259c-.009-.985-.223-1.861-.639-2.628a4.652 4.652 0 0 0-1.747-1.832c-.739-.445-1.601-.668-2.586-.668-1.051 0-1.974.256-2.769.767a5.283 5.283 0 0 0-1.861 1.989 5.656 5.656 0 0 0-.657 2.372z" clip-rule="evenodd"/><path fill="#1A1A1A" d="M89.08 205v-29.091h-5.142V205h5.141zm-29.209 0v-29.091h18.92v4.418h-13.65v7.898h12.67v4.417h-12.67v7.94h13.764V205H59.871zm296.471-48v-3.806l10.1-9.901a47.664 47.664 0 0 0 2.415-2.599c.643-.758 1.126-1.492 1.448-2.202a5.44 5.44 0 0 0 .483-2.273c0-.918-.208-1.704-.625-2.358a4.15 4.15 0 0 0-1.718-1.534c-.73-.36-1.558-.54-2.486-.54-.957 0-1.795.199-2.514.597a4.105 4.105 0 0 0-1.677 1.662c-.388.72-.582 1.577-.582 2.571h-5.014c0-1.847.421-3.452 1.264-4.816.843-1.363 2.003-2.419 3.48-3.167 1.487-.748 3.191-1.122 5.114-1.122 1.951 0 3.665.364 5.142 1.093 1.477.73 2.623 1.729 3.437 2.998.824 1.269 1.236 2.717 1.236 4.346a8.635 8.635 0 0 1-.625 3.21c-.416 1.052-1.15 2.216-2.202 3.495-1.041 1.278-2.504 2.826-4.389 4.645l-5.014 5.099v.199h12.671V157h-19.944z"/><path fill="#1A1A1A" fill-rule="evenodd" d="M334.392 155.779c1.676 1.183 3.683 1.775 6.022 1.775 2.339 0 4.342-.592 6.009-1.775 1.676-1.184 2.959-2.898 3.849-5.142.9-2.254 1.35-4.972 1.35-8.154 0-3.163-.45-5.861-1.35-8.096-.89-2.235-2.173-3.94-3.849-5.114-1.676-1.174-3.679-1.761-6.009-1.761-2.329 0-4.332.587-6.008 1.761-1.667 1.174-2.95 2.879-3.85 5.114-.89 2.225-1.34 4.924-1.349 8.096 0 3.173.445 5.886 1.335 8.14.9 2.244 2.183 3.963 3.85 5.156zm10.326-5.355c-1.051 1.789-2.485 2.684-4.304 2.684-1.212 0-2.258-.397-3.139-1.193-.88-.805-1.562-1.998-2.045-3.579-.474-1.582-.706-3.533-.696-5.853.009-3.466.54-6.093 1.591-7.883 1.051-1.799 2.481-2.699 4.289-2.699 1.203 0 2.245.402 3.125 1.207.881.796 1.563 1.979 2.046 3.551.483 1.572.724 3.514.724 5.824 0 3.495-.53 6.141-1.591 7.941z" clip-rule="evenodd"/><path fill="#1A1A1A" d="M304.819 157v-3.806l10.099-9.901a47.664 47.664 0 0 0 2.415-2.599c.644-.758 1.127-1.492 1.449-2.202a5.44 5.44 0 0 0 .483-2.273c0-.918-.208-1.704-.625-2.358a4.16 4.16 0 0 0-1.719-1.534c-.729-.36-1.558-.54-2.486-.54-.956 0-1.794.199-2.514.597a4.102 4.102 0 0 0-1.676 1.662c-.388.72-.582 1.577-.582 2.571h-5.015c0-1.847.422-3.452 1.265-4.816.842-1.363 2.002-2.419 3.48-3.167 1.486-.748 3.191-1.122 5.113-1.122 1.951 0 3.665.364 5.142 1.093 1.478.73 2.624 1.729 3.438 2.998.824 1.269 1.236 2.717 1.236 4.346a8.655 8.655 0 0 1-.625 3.21c-.417 1.052-1.151 2.216-2.202 3.495-1.042 1.278-2.505 2.826-4.389 4.645l-5.014 5.099v.199h12.67V157h-19.943zm-31.66 8.011c.596.114 1.245.171 1.946.171 1.344 0 2.5-.223 3.466-.668a6.586 6.586 0 0 0 2.471-1.903c.673-.824 1.212-1.814 1.62-2.969l8.735-24.46h-5.468l-5.043 16.477h-.227l-5.029-16.477h-5.454l7.912 22.272-.441 1.179c-.312.824-.696 1.411-1.15 1.762-.445.36-.961.544-1.548.554-.588.009-1.255-.095-2.003-.313l-1.194 4.006c.351.142.82.265 1.407.369z"/><path fill="#1A1A1A" fill-rule="evenodd" d="M256 157.44c-1.382 0-2.627-.246-3.735-.739a6.09 6.09 0 0 1-2.614-2.215c-.635-.976-.952-2.179-.952-3.608 0-1.231.227-2.249.682-3.054a5.28 5.28 0 0 1 1.861-1.932 9.375 9.375 0 0 1 2.656-1.094 21.61 21.61 0 0 1 3.082-.554c1.279-.133 2.316-.251 3.111-.355.796-.114 1.373-.284 1.733-.511.37-.237.554-.602.554-1.094v-.085c0-1.07-.317-1.899-.952-2.486-.634-.587-1.548-.881-2.741-.881-1.259 0-2.259.275-2.997.824-.729.549-1.222 1.198-1.477 1.946l-4.802-.682c.379-1.326 1.004-2.434 1.875-3.324.872-.899 1.937-1.572 3.196-2.017 1.26-.454 2.652-.682 4.177-.682 1.051 0 2.097.124 3.139.37a8.839 8.839 0 0 1 2.855 1.221c.862.559 1.553 1.321 2.074 2.287.53.966.795 2.174.795 3.622V157h-4.943v-2.997h-.17a6.285 6.285 0 0 1-1.321 1.704c-.559.521-1.265.942-2.117 1.264-.843.313-1.832.469-2.969.469zm1.336-3.778c1.032 0 1.927-.204 2.684-.611.758-.417 1.34-.966 1.747-1.648a4.194 4.194 0 0 0 .625-2.23v-2.571c-.161.133-.435.256-.823.369-.379.114-.805.213-1.279.299-.473.085-.942.161-1.406.227l-1.208.17a9.002 9.002 0 0 0-2.059.512c-.606.236-1.084.568-1.435.994-.35.417-.525.956-.525 1.619 0 .947.345 1.662 1.037 2.145.691.483 1.572.725 2.642.725zm-29.318 2.401c1.354.88 2.888 1.321 4.602 1.321 1.25 0 2.287-.209 3.111-.625.824-.417 1.487-.919 1.989-1.506.502-.597.885-1.16 1.15-1.69h.313V157h5.057v-29.091h-5.157v10.881h-.213c-.265-.53-.639-1.094-1.122-1.69-.483-.607-1.136-1.123-1.96-1.549-.824-.435-1.875-.653-3.153-.653-1.677 0-3.196.431-4.56 1.292-1.364.853-2.448 2.117-3.253 3.793-.795 1.667-1.193 3.712-1.193 6.136 0 2.396.393 4.432 1.179 6.108.786 1.676 1.856 2.955 3.21 3.836zm8.821-3.779c-.767.587-1.695.881-2.784.881-1.127 0-2.079-.303-2.855-.909-.767-.616-1.35-1.454-1.747-2.514-.388-1.071-.583-2.287-.583-3.651 0-1.354.195-2.557.583-3.608.388-1.051.966-1.875 1.733-2.472.767-.596 1.723-.894 2.869-.894 1.108 0 2.041.288 2.798.866.767.578 1.345 1.387 1.733 2.429.398 1.042.597 2.268.597 3.679s-.199 2.647-.597 3.707c-.397 1.061-.98 1.89-1.747 2.486z" clip-rule="evenodd"/><path fill="#1A1A1A" d="M198.234 135.182V157h5.142v-12.827c0-.928.213-1.747.64-2.457a4.47 4.47 0 0 1 1.747-1.662c.748-.407 1.591-.611 2.528-.611.436 0 .886.033 1.35.099.473.057.819.124 1.037.199v-4.73a6.48 6.48 0 0 0-.895-.099 11.638 11.638 0 0 0-.952-.043c-1.25 0-2.363.346-3.338 1.037-.966.682-1.648 1.653-2.046 2.912h-.227v-3.636h-4.986zM175.34 157v-29.091h18.636v4.418H180.61v7.898h12.088v4.417H180.61V157h-5.27zm-27.784-7.334V157h-5.142v-29.091h5.142v16.037h.355l7.841-8.764h6.009l-8.459 9.418 8.956 12.4h-6.151l-6.68-9.339-1.871 2.005zm-18.711 7.76c-2.178 0-4.048-.478-5.611-1.435-1.553-.956-2.751-2.277-3.593-3.963-.834-1.695-1.25-3.646-1.25-5.852 0-2.216.426-4.172 1.278-5.867.852-1.704 2.055-3.03 3.608-3.977 1.562-.956 3.409-1.435 5.54-1.435 1.771 0 3.338.327 4.701.981 1.374.644 2.467 1.557 3.282 2.741.814 1.174 1.278 2.547 1.392 4.119h-4.915c-.199-1.051-.672-1.927-1.42-2.627-.739-.711-1.729-1.066-2.969-1.066-1.051 0-1.975.284-2.77.852-.796.559-1.416 1.364-1.861 2.415-.436 1.051-.653 2.311-.653 3.779 0 1.486.217 2.765.653 3.835.436 1.06 1.047 1.88 1.832 2.457.796.568 1.729.853 2.799.853.757 0 1.434-.143 2.031-.427a4.08 4.08 0 0 0 1.52-1.264c.407-.549.686-1.217.838-2.003h4.915c-.123 1.544-.578 2.912-1.364 4.105-.786 1.184-1.856 2.112-3.21 2.785-1.354.662-2.945.994-4.773.994z"/><path fill="#1A1A1A" fill-rule="evenodd" d="M98.905 156.701c1.108.493 2.353.739 3.736.739 1.136 0 2.126-.156 2.969-.469.852-.322 1.557-.743 2.116-1.264.568-.53 1.009-1.098 1.321-1.704h.171V157h4.943v-14.603c0-1.448-.265-2.656-.796-3.622-.52-.966-1.212-1.728-2.073-2.287a8.835 8.835 0 0 0-2.856-1.221 13.611 13.611 0 0 0-3.139-.37c-1.524 0-2.916.228-4.176.682-1.26.445-2.325 1.118-3.196 2.017-.871.89-1.496 1.998-1.875 3.324l4.801.682c.256-.748.748-1.397 1.477-1.946.739-.549 1.738-.824 2.998-.824 1.193 0 2.107.294 2.741.881.635.587.952 1.416.952 2.486v.085c0 .492-.185.857-.554 1.094-.36.227-.938.397-1.733.511-.796.104-1.832.222-3.111.355a21.585 21.585 0 0 0-3.082.554 9.376 9.376 0 0 0-2.657 1.094 5.276 5.276 0 0 0-1.86 1.932c-.455.805-.682 1.823-.682 3.054 0 1.429.317 2.632.951 3.608a6.092 6.092 0 0 0 2.614 2.215zm7.756-3.65c-.758.407-1.653.611-2.685.611-1.07 0-1.951-.242-2.642-.725-.691-.483-1.037-1.198-1.037-2.145 0-.663.175-1.202.526-1.619.35-.426.828-.758 1.434-.994a9.024 9.024 0 0 1 2.06-.512l1.208-.17c.464-.066.932-.142 1.406-.227.473-.086.899-.185 1.278-.299.388-.113.663-.236.824-.369v2.571c0 .805-.208 1.548-.625 2.23-.407.682-.99 1.231-1.747 1.648z" clip-rule="evenodd"/><path fill="#1A1A1A" d="M91.072 127.909V157H85.93v-29.091h5.142z"/><path fill="#1A1A1A" fill-rule="evenodd" d="M59.871 127.909V157h11.776c2.225 0 4.072-.346 5.54-1.037 1.467-.691 2.566-1.633 3.295-2.827.73-1.202 1.094-2.556 1.094-4.062 0-1.477-.303-2.737-.91-3.778-.605-1.042-1.387-1.847-2.343-2.415-.947-.578-1.937-.895-2.969-.952v-.284a7.746 7.746 0 0 0 2.571-1.122 5.739 5.739 0 0 0 1.832-2.031c.455-.843.682-1.856.682-3.04 0-1.44-.35-2.727-1.05-3.864-.692-1.136-1.739-2.031-3.14-2.685-1.392-.662-3.14-.994-5.242-.994H59.871zm10.938 24.688H65.14v-8.523h5.81c1.089 0 2.026.204 2.812.611.786.397 1.392.947 1.818 1.647.426.692.64 1.468.64 2.33 0 1.155-.427 2.102-1.279 2.841-.843.729-2.22 1.094-4.133 1.094zm-.455-12.316h-5.213v-8.025h5.327c1.553 0 2.722.364 3.508 1.094.796.729 1.193 1.657 1.193 2.784 0 .852-.213 1.591-.639 2.216-.416.615-.99 1.093-1.719 1.434-.729.332-1.548.497-2.457.497z" clip-rule="evenodd"/></svg>